<svg width="637" height="409" viewBox="0 0 637 409" fill="none" xmlns="http://www.w3.org/2000/svg">
<path fill-rule="evenodd" clip-rule="evenodd" d="M7.922 2.37945C6.066 3.62945 3.524 6.17145 2.274 8.02745L0 11.4014V204.105V396.809L2.274 400.183C9.444 410.823 22.556 410.823 29.726 400.183L32 396.809V291.72V186.63L85.75 240.291C144.439 298.883 142.673 297.415 151.509 294.975C156.797 293.515 162.635 287.566 163.546 282.709C165.235 273.707 167.159 275.933 96.919 205.595L32 140.584V75.9934V11.4014L29.726 8.02745C24.419 0.151449 14.89 -2.31655 7.922 2.37945ZM270.99 2.35545C269.172 3.59245 266.743 5.87545 265.592 7.42845C263.505 10.2454 263.499 10.5234 263 124.928L262.5 239.605L208.5 185.97C149.617 127.484 152.213 129.624 143.123 132.072C138.188 133.401 132.361 139.663 131.427 144.642C129.771 153.467 128.023 151.447 198.086 221.623L263 286.64V341.725V396.809L265.274 400.183C272.444 410.823 285.556 410.823 292.726 400.183L295 396.809V204.105V11.4014L292.726 8.02745C287.434 0.173449 277.864 -2.32355 270.99 2.35545ZM470 1.19145C435.493 6.53945 409.829 19.4064 385.403 43.6064C364.04 64.7724 351.012 88.6384 345.008 117.605C342.221 131.049 341.589 139.303 343.002 143.766C343.981 146.855 357.424 160.844 411.859 215.416C453.888 257.551 480.777 283.772 482.872 284.666C492.37 288.719 503.027 283.165 505.547 272.848C507.438 265.105 509.31 267.259 440.029 197.481L375.214 132.201L376.511 125.403C382.961 91.5874 406.949 60.3254 438.412 44.7334C447.731 40.1154 459.897 36.1434 471.143 34.0474C479.304 32.5274 500.609 32.5454 509 34.0804C519.7 36.0384 535.996 41.7714 544.235 46.4764C579.763 66.7654 600.811 99.4734 604.143 139.57C605.344 154.011 606.3 156.707 611.674 160.803C614.725 163.129 616.319 163.599 621.046 163.572C625.698 163.545 627.407 163.032 630.372 160.77C635.827 156.609 637.003 153.522 636.983 143.405C636.946 124.811 630.743 99.4244 622.009 82.1224C608.003 54.3784 582.952 29.1784 555.766 15.4874C543.023 9.07045 525.125 3.56045 509.308 1.18545C501.008 -0.0615507 478.06 -0.057554 470 1.19145ZM482.396 123.534C476.496 126.103 472.481 134.038 473.506 141.105C474.14 145.482 475.934 147.385 539.039 210.605L603.919 275.605L602.05 284.105C598.174 301.721 592.07 315.028 581.14 329.687C559.554 358.638 526.141 375.275 489.5 375.314C482.35 375.322 473.575 374.791 470 374.134C417.808 364.547 379.41 322.173 374.887 269.174C373.639 254.548 372.561 251.397 367.477 247.52C364.401 245.173 362.737 244.665 358.046 244.638C353.319 244.611 351.725 245.081 348.674 247.407C343.171 251.6 341.997 254.669 342.017 264.805C342.055 283.907 348.009 308.295 356.967 326.041C373.829 359.444 404.617 387.101 438.295 399.098C456.103 405.442 471.226 408.113 489.192 408.087C529.166 408.029 564.51 393.503 592.56 365.605C605.554 352.681 614.041 341.216 621.437 326.593C631.897 305.916 639.226 274.634 635.998 264.444C635.02 261.356 621.556 247.338 567.141 192.753C528.006 153.497 498.144 124.312 496.282 123.503C492.261 121.756 486.452 121.769 482.396 123.534Z" fill="black"/>
</svg>
