<svg width="637" height="409" viewBox="0 0 637 409" fill="none" xmlns="http://www.w3.org/2000/svg">
<path d="M8.20131 2.79416L8.20144 2.79407C14.8942 -1.71643 24.1255 0.610718 29.3113 8.30685L29.3114 8.30689L31.5 11.5542V75.9934V140.584V140.791L31.6462 140.938L96.5652 205.949C98.4701 207.856 100.322 209.71 102.122 211.513C133.519 242.95 149.193 258.644 156.828 267.48C160.871 272.161 162.603 274.856 163.249 276.904C163.814 278.698 163.559 280.013 163.192 281.902C163.147 282.132 163.101 282.369 163.055 282.617C162.624 284.911 161.009 287.527 158.812 289.766C156.619 292.001 153.911 293.794 151.376 294.493C151.152 294.555 150.936 294.616 150.727 294.675C148.836 295.206 147.529 295.574 145.866 295.211C144 294.805 141.639 293.458 137.644 290.136C130.072 283.839 116.884 270.672 90.4495 244.277C89.0389 242.869 87.5905 241.422 86.1033 239.938L32.3533 186.277L31.5 185.425V186.63V291.72V396.657L29.3114 399.904L29.726 400.183L29.3114 399.904C25.808 405.103 20.8849 407.663 16 407.663C11.1151 407.663 6.19203 405.103 2.68864 399.904L2.27437 400.183L2.68862 399.904L0.5 396.657V204.105V11.5542L2.68862 8.30689L2.68871 8.30676C3.90272 6.50419 6.39875 4.00817 8.20131 2.79416ZM271.271 2.76883L270.99 2.35562L271.271 2.76878C277.867 -1.72083 287.139 0.62995 292.311 8.30684L294.5 11.5542V204.105V396.657L292.311 399.904C288.808 405.103 283.885 407.663 279 407.663C274.115 407.663 269.192 405.103 265.689 399.904L263.5 396.657V341.725V286.64V286.434L263.354 286.287L198.44 221.27C196.694 219.522 194.994 217.819 193.336 216.159C161.721 184.495 145.935 168.686 138.24 159.799C134.183 155.114 132.43 152.413 131.767 150.371C131.18 148.565 131.433 147.257 131.797 145.372C131.836 145.167 131.877 144.955 131.918 144.735C132.362 142.373 133.986 139.645 136.141 137.329C138.295 135.014 140.909 133.187 143.253 132.555C143.6 132.462 143.926 132.37 144.236 132.284C146.013 131.785 147.256 131.437 148.8 131.728C150.62 132.071 152.902 133.326 156.821 136.557C164.071 142.534 176.665 155.047 201.912 180.131C203.91 182.116 205.987 184.18 208.148 186.325L262.148 239.96L262.995 240.802L263 239.608L263.5 124.931C263.75 67.7248 263.876 39.0605 264.2 24.344C264.363 16.9788 264.575 13.1329 264.872 10.9557C265.02 9.8702 265.187 9.22665 265.366 8.77986C265.541 8.34265 265.736 8.07354 265.994 7.72617C267.107 6.2239 269.493 3.97855 271.271 2.76883ZM374.723 132.108L374.673 132.367L374.859 132.554L439.674 197.834C441.543 199.716 443.361 201.546 445.127 203.326C476.115 234.532 491.587 250.114 499.1 258.756C503.081 263.336 504.769 265.904 505.375 267.773C505.9 269.393 505.623 270.495 505.213 272.12C505.164 272.315 505.113 272.518 505.061 272.73C502.61 282.764 492.267 288.132 483.068 284.207C483.007 284.18 482.829 284.068 482.499 283.81C482.186 283.566 481.777 283.225 481.271 282.785C480.26 281.906 478.879 280.648 477.144 279.029C473.676 275.79 468.808 271.115 462.69 265.149C450.454 253.217 433.227 236.13 412.213 215.063C384.995 187.777 368.029 170.64 357.745 159.939C352.602 154.588 349.137 150.852 346.897 148.264C345.777 146.969 344.97 145.969 344.414 145.201C343.85 144.421 343.575 143.92 343.479 143.616C342.801 141.476 342.6 138.373 342.929 134.092C343.256 129.82 344.106 124.419 345.498 117.707C351.481 88.8379 364.461 65.0597 385.755 43.9616C410.105 19.837 435.672 7.01768 470.077 1.68555C474.065 1.06751 481.783 0.753697 489.564 0.752448C497.345 0.751199 505.124 1.06244 509.234 1.6799C525.005 4.04797 542.851 9.54356 555.541 15.934C582.629 29.5758 607.604 54.6972 621.563 82.3478C630.263 99.5832 636.446 124.894 636.483 143.406C636.493 148.463 636.201 151.681 635.263 154.144C634.337 156.577 632.76 158.32 630.069 160.373L630.372 160.77L630.069 160.373C628.609 161.487 627.495 162.141 626.198 162.531C624.89 162.924 623.359 163.059 621.043 163.072C618.687 163.086 617.169 162.974 615.873 162.591C614.588 162.211 613.483 161.554 611.977 160.406L611.674 160.803L611.977 160.406C609.333 158.391 607.831 156.765 606.815 153.899C605.78 150.98 605.243 146.763 604.641 139.529C601.295 99.2646 580.151 66.4113 544.483 46.0423C536.188 41.3055 519.838 35.5553 509.09 33.5886C504.847 32.8125 497.385 32.4247 489.986 32.4183C482.587 32.4119 475.181 32.7868 471.051 33.5559L471.143 34.0474L471.051 33.5559C459.765 35.6595 447.554 39.6451 438.19 44.2854C406.59 59.9453 382.5 91.3365 376.02 125.31L374.723 132.108ZM604.407 275.713L604.466 275.446L604.273 275.252L539.393 210.252C507.837 178.639 491.619 162.365 483.21 153.446C479.001 148.983 476.769 146.383 475.549 144.635C474.942 143.765 474.596 143.12 474.381 142.573C474.168 142.03 474.078 141.564 474.001 141.034L473.506 141.105L474.001 141.034C473.505 137.614 474.228 133.967 475.8 130.859C477.374 127.748 479.777 125.22 482.596 123.993C486.526 122.283 492.19 122.271 496.083 123.962C496.081 123.961 496.094 123.967 496.127 123.987C496.157 124.006 496.197 124.033 496.248 124.069C496.348 124.141 496.479 124.241 496.64 124.372C496.962 124.632 497.391 125.001 497.924 125.475C498.99 126.422 500.458 127.778 502.293 129.508C505.963 132.969 511.09 137.917 517.385 144.068C529.973 156.371 547.22 173.479 566.787 193.106C593.995 220.4 610.961 237.547 621.248 248.257C626.392 253.612 629.859 257.352 632.1 259.943C633.221 261.239 634.029 262.241 634.585 263.009C635.15 263.79 635.425 264.291 635.521 264.595C636.298 267.046 636.453 270.83 636.057 275.504C635.663 280.162 634.728 285.649 633.364 291.472C630.635 303.12 626.2 316.071 620.991 326.368C613.622 340.938 605.168 352.36 592.207 365.251C564.252 393.055 529.035 407.53 489.191 407.587C471.286 407.613 456.22 404.953 438.463 398.627C404.912 386.676 374.22 359.11 357.413 325.816C348.489 308.137 342.555 283.825 342.517 264.804C342.507 259.738 342.799 256.52 343.741 254.057C344.673 251.622 346.26 249.875 348.977 247.805L348.674 247.407L348.977 247.805C350.483 246.657 351.588 246 352.873 245.62C354.169 245.237 355.687 245.125 358.043 245.138C360.379 245.152 361.907 245.286 363.221 245.688C364.526 246.086 365.656 246.76 367.174 247.918L367.477 247.52L367.174 247.918C369.66 249.814 371.127 251.495 372.147 254.478C373.185 257.511 373.764 261.894 374.389 269.217C378.931 322.44 417.495 364.998 469.91 374.626C473.531 375.292 482.343 375.822 489.501 375.814C526.297 375.775 559.859 359.066 581.541 329.986C592.513 315.271 598.647 301.899 602.538 284.213L604.407 275.713Z" fill="white" stroke="#191111"/>
</svg>
